<svg width="24" height="24" viewBox="0 0 24 24" fill="none" xmlns="http://www.w3.org/2000/svg">
<path d="M18.108 6.41647C18.3765 6.68495 18.3988 7.10635 18.1751 7.40033L18.108 7.47713L7.50137 18.0837C7.20847 18.3766 6.7336 18.3766 6.44071 18.0837C6.17222 17.8152 6.14985 17.3938 6.37358 17.0999L6.44071 17.0231L17.0473 6.41647C17.3402 6.12358 17.8151 6.12358 18.108 6.41647Z" fill="#050010"/>
<path d="M15.5072 16.7854C15.9214 16.7845 16.2579 17.1196 16.2588 17.5338C16.2596 17.9104 15.9828 18.2227 15.6212 18.2771L15.5104 18.2854L6.97283 18.3038C6.59515 18.3046 6.28228 18.0262 6.22916 17.6634L6.22122 17.5523L6.23889 9.01396C6.23975 8.59974 6.57623 8.26465 6.99044 8.26551C7.367 8.26629 7.67817 8.54444 7.73099 8.90622L7.73889 9.01706L7.72322 16.8022L15.5072 16.7854Z" fill="#050010"/>
</svg>
