<svg width="60" height="60" viewBox="0 0 60 60" fill="none" xmlns="http://www.w3.org/2000/svg">
<rect x="1" y="1" width="58" height="58" rx="29" fill="#141423" stroke="white" stroke-width="2"/>
<g clip-path="url(#clip0_583_1158)">
<path d="M29.995 16C28.0043 16 26.0334 16.4182 24.2119 17.2447C24.1522 17.2745 24.1024 17.3044 24.0626 17.3542C24.0228 17.404 23.9829 17.4538 23.963 17.5135C23.9431 17.5733 23.9332 17.633 23.9332 17.7027C23.9332 17.7624 23.9531 17.8222 23.9829 17.8819L24.8191 19.5548C24.8688 19.6643 24.9684 19.744 25.0779 19.7838C25.1873 19.8236 25.3167 19.8236 25.4262 19.7738C26.8596 19.1366 28.4124 18.808 29.9851 18.808C32.0156 18.808 34.0164 19.3556 35.7583 20.4111C37.5002 21.4666 38.9236 22.9602 39.8791 24.7624C40.8347 26.5548 41.2727 28.5861 41.1632 30.6174C41.0537 32.6486 40.3967 34.6102 39.252 36.293L37.7789 34.8193C37.7092 34.7496 37.6296 34.7098 37.54 34.6899C37.4504 34.67 37.3608 34.6899 37.2712 34.7198C37.1817 34.7596 37.112 34.8193 37.0622 34.889C37.0124 34.9687 36.9826 35.0583 36.9826 35.1479V40.2859C36.9826 40.5448 37.1916 40.7539 37.4504 40.7539H42.5866C42.6761 40.7539 42.7657 40.724 42.8454 40.6743C42.925 40.6245 42.9847 40.5448 43.0146 40.4651C43.0544 40.3755 43.0544 40.2859 43.0444 40.1963C43.0245 40.1067 42.9847 40.027 42.915 39.9573L41.2627 38.3044C43.0345 35.9047 43.99 33.0071 43.99 30.0199C43.99 26.3058 42.5069 22.7511 39.8891 20.1223C37.2712 17.4836 33.7078 16 29.995 16Z" fill="#A0A6FF"/>
<path d="M17.3935 19.266C17.3039 19.266 17.2144 19.2959 17.1347 19.3456C17.0551 19.3954 16.9954 19.4651 16.9655 19.5548C16.9257 19.6444 16.9157 19.734 16.9357 19.8236C16.9556 19.9132 16.9954 19.9929 17.0651 20.0626L18.7174 21.7155C16.9556 24.1152 16 27.0227 16 30C16 32.34 16.5873 34.6401 17.7121 36.7013C18.8368 38.7525 20.4493 40.495 22.4202 41.7695C24.391 43.0341 26.6406 43.7909 28.9698 43.9701C31.299 44.1394 33.6481 43.7311 35.7782 42.7653C35.8379 42.7354 35.8877 42.7055 35.9275 42.6557C35.9673 42.606 36.0071 42.5562 36.027 42.4964C36.0469 42.4367 36.0569 42.3769 36.0569 42.3072C36.0569 42.2475 36.037 42.1878 36.0071 42.128L35.171 40.4552C35.1212 40.3456 35.0217 40.266 34.9122 40.2262C34.8027 40.1863 34.6733 40.1863 34.5638 40.2361C33.1305 40.8734 31.5777 41.202 30.005 41.202C27.9744 41.202 25.9737 40.6543 24.2318 39.6088C22.4899 38.5633 21.0665 37.0597 20.1109 35.2575C19.1554 33.4552 18.7074 31.4338 18.8269 29.4025C18.9364 27.3713 19.6033 25.4097 20.738 23.7269L22.2112 25.2006C22.2808 25.2603 22.3605 25.3101 22.4501 25.32C22.5396 25.34 22.6292 25.32 22.7188 25.2902C22.7984 25.2503 22.8781 25.2006 22.9278 25.1209C22.9776 25.0412 23.0075 24.9516 23.0075 24.862V19.734C23.0075 19.6742 22.9975 19.6145 22.9677 19.5548C22.9477 19.495 22.9079 19.4452 22.8681 19.4054C22.8283 19.3656 22.7686 19.3257 22.7188 19.3058C22.6591 19.2859 22.5994 19.266 22.5396 19.266H17.3935Z" fill="#A0A6FF"/>
<path d="M29.995 22.532C25.8742 22.532 22.5297 25.8876 22.5297 30C22.5297 34.1124 25.8742 37.468 29.995 37.468C34.1159 37.468 37.4604 34.1223 37.4604 30C37.4604 25.8776 34.1059 22.532 29.995 22.532ZM29.995 29.5419C31.2791 29.5419 32.3242 30.5974 32.3242 31.8819C32.3242 33.0071 31.518 33.953 30.4529 34.1721V35.1579C30.4529 35.7852 29.5173 35.7852 29.5173 35.1579V34.1721C28.9897 34.0626 28.5219 33.7738 28.1834 33.3556C27.845 32.9374 27.6559 32.4196 27.6559 31.8819C27.6658 31.2745 28.5716 31.2745 28.5915 31.8819C28.5915 32.6586 29.2087 33.2759 29.9851 33.2759C30.7615 33.2759 31.3786 32.6586 31.3786 31.8819C31.3786 31.1052 30.7615 30.4779 29.9851 30.4779C29.3679 30.4779 28.7707 30.229 28.3427 29.7909C27.9047 29.3528 27.6559 28.7653 27.6559 28.1479C27.6559 27.0227 28.4622 26.0867 29.5173 25.8677V24.8819C29.5173 24.5732 29.7561 24.4139 29.9851 24.4139C30.214 24.4139 30.4529 24.5732 30.4529 24.8819V25.8677C30.9805 25.9772 31.4483 26.266 31.7967 26.6842C32.1351 27.1024 32.3242 27.6202 32.3242 28.1579C32.3342 28.7951 31.3786 28.7951 31.3886 28.1579C31.3886 27.3812 30.7714 26.7638 29.995 26.7638C29.2186 26.7638 28.6015 27.3812 28.6015 28.1579C28.6015 28.9345 29.2186 29.5519 29.995 29.5519V29.5419Z" fill="#A6E3BE"/>
</g>
<defs>
<clipPath id="clip0_583_1158">
<rect width="28" height="28" fill="white" transform="translate(16 16)"/>
</clipPath>
</defs>
</svg>
