<svg width="24" height="24" viewBox="0 0 24 24" fill="none" xmlns="http://www.w3.org/2000/svg">
<path d="M13 22.75H11C7.7 22.75 5.71 22.09 5.34 18.74C5.28 18.29 5.25 17.75 5.25 17V7C5.25 6.25 5.28 5.71 5.35 5.23C5.71 1.91 7.7 1.25 11 1.25H13C16.3 1.25 18.29 1.91 18.66 5.26C18.72 5.71 18.75 6.25 18.75 7V17C18.75 17.75 18.72 18.29 18.65 18.77C18.29 22.09 16.3 22.75 13 22.75ZM11 2.75C7.69 2.75 7.06 3.42 6.84 5.42C6.78 5.85 6.75 6.32 6.75 7V17C6.75 17.68 6.78 18.15 6.83 18.55C7.05 20.58 7.69 21.25 11 21.25H13C16.31 21.25 16.94 20.58 17.16 18.58C17.22 18.16 17.25 17.68 17.25 17V7C17.25 6.33 17.22 5.85 17.17 5.45C16.95 3.42 16.31 2.75 13 2.75H11Z" fill="white"/>
<path d="M5.67 19.42H5.33C2.24 19.42 1.25 18.43 1.25 15.33V8.66999C1.25 5.56999 2.24 4.57999 5.33 4.57999H5.67C5.84 4.57999 5.98 4.57999 6.14 4.58999C6.35 4.59999 6.54 4.69999 6.67 4.86999C6.8 5.03999 6.86 5.23999 6.83 5.44999C6.78 5.84999 6.75 6.31999 6.75 6.99999V17C6.75 17.68 6.78 18.15 6.83 18.55C6.86 18.76 6.8 18.97 6.67 19.13C6.54 19.29 6.35 19.39 6.14 19.41C5.98 19.42 5.84 19.42 5.67 19.42ZM5.27 6.07999C3.08 6.08999 2.75 6.43999 2.75 8.66999V15.33C2.75 17.56 3.08 17.91 5.27 17.92C5.26 17.65 5.25 17.35 5.25 17V6.99999C5.25 6.64999 5.26 6.34999 5.27 6.07999Z" fill="white"/>
<path d="M18.67 19.42H18.33C18.16 19.42 18.02 19.42 17.86 19.41C17.65 19.4 17.46 19.3 17.33 19.13C17.2 18.97 17.14 18.76 17.17 18.55C17.23 18.15 17.25 17.67 17.25 17V6.99999C17.25 6.32999 17.22 5.84999 17.17 5.44999C17.14 5.23999 17.2 5.02999 17.33 4.86999C17.46 4.70999 17.65 4.60999 17.86 4.58999C18.02 4.57999 18.16 4.57999 18.33 4.57999H18.67C21.76 4.57999 22.75 5.56999 22.75 8.66999V15.33C22.75 18.43 21.76 19.42 18.67 19.42ZM18.73 6.07999C18.74 6.34999 18.75 6.64999 18.75 6.99999V17C18.75 17.35 18.74 17.65 18.73 17.92C20.92 17.91 21.25 17.56 21.25 15.33V8.66999C21.25 6.43999 20.92 6.08999 18.73 6.07999Z" fill="white"/>
</svg>
