<svg width="221" height="104" viewBox="0 0 221 104" fill="none" xmlns="http://www.w3.org/2000/svg">
<path d="M60.29 38.51L10.68 88.13L0 54.86L54.86 0L60.29 38.51Z" fill="#66D694"/>
<path d="M5.29004 95.41L58.14 42.56L70.83 73.82L40.93 103.72L5.29004 95.41Z" fill="#A0A6FF"/>
<path d="M49.79 43.11H18.21V49.88H28.49C31.39 49.88 34.02 51.56 35.3 54.13H18.21V60.9H35.3C34.03 63.47 31.4 65.14 28.49 65.15H18.21V72.69L33.98 88.46H43.56L27.02 71.92H28.49C35.13 71.92 40.94 67.31 42.49 60.89H49.79V54.12H42.49C42.12 52.62 41.49 51.17 40.65 49.87H49.79V43.1V43.11Z" fill="black"/>
<path d="M102.628 35.1152H92.9696V41.2048H104.383V45.9301H86.8301V20.4569H104.417V25.1988H92.9696V30.573H102.628V35.1235V35.1152Z" fill="white"/>
<path d="M114.283 32.2118L117.028 26.9958H123.151L118.16 36.2217L123.393 45.9301H117.228L114.25 40.3313L111.33 45.9301H105.132L110.381 36.2217L105.415 26.9958H111.613L114.275 32.2118H114.283Z" fill="white"/>
<path d="M142.635 36.6043C142.635 39.541 141.969 41.8953 140.646 43.6506C139.324 45.406 137.535 46.2878 135.281 46.2878C133.542 46.2878 132.111 45.6555 130.996 44.3827V53.2176H125.098V26.9958H130.613L130.788 28.7428C131.92 27.3452 133.409 26.6464 135.247 26.6464C137.585 26.6464 139.398 27.5115 140.688 29.2253C141.977 30.939 142.626 33.31 142.626 36.3215V36.6043H142.635ZM136.736 36.2383C136.736 32.8774 135.755 31.1969 133.8 31.1969C132.402 31.1969 131.462 31.6961 130.996 32.7027V40.1566C131.512 41.2048 132.452 41.7289 133.833 41.7289C135.713 41.7289 136.678 40.1067 136.736 36.8622V36.23V36.2383Z" fill="white"/>
<path d="M154.398 46.2878C151.495 46.2878 149.14 45.4226 147.343 43.6922C145.546 41.9619 144.648 39.7074 144.648 36.9288V36.438C144.648 34.4996 145.006 32.7942 145.721 31.3134C146.437 29.8326 147.485 28.6845 148.866 27.8776C150.247 27.0706 151.877 26.663 153.766 26.663C156.428 26.663 158.524 27.4866 160.063 29.1421C161.602 30.7976 162.376 33.0937 162.376 36.047V38.343H150.654C150.862 39.4079 151.328 40.2398 152.035 40.8471C152.742 41.4544 153.666 41.7539 154.797 41.7539C156.661 41.7539 158.125 41.0967 159.173 39.7906L161.869 42.9768C161.136 43.9917 160.088 44.7987 158.749 45.3976C157.401 45.9966 155.954 46.2961 154.398 46.2961V46.2878ZM153.732 31.2052C152.002 31.2052 150.979 32.3533 150.654 34.6327H156.603V34.1752C156.627 33.2268 156.386 32.4947 155.887 31.9789C155.388 31.4631 154.664 31.1969 153.732 31.1969V31.2052Z" fill="white"/>
<path d="M170.163 26.9958L170.354 29.217C171.66 27.5032 173.465 26.6464 175.761 26.6464C177.733 26.6464 179.205 27.237 180.179 28.41C181.152 29.5913 181.66 31.3633 181.693 33.7342V45.9301H175.778V33.9755C175.778 33.0188 175.587 32.32 175.204 31.8708C174.821 31.4215 174.122 31.1969 173.108 31.1969C171.951 31.1969 171.094 31.6545 170.537 32.5612V45.9301H164.639V26.9958H170.171H170.163Z" fill="white"/>
<path d="M194.879 40.6142C194.879 40.115 194.613 39.7074 194.089 39.4079C193.564 39.1084 192.566 38.7923 191.094 38.4595C189.621 38.1351 188.407 37.7025 187.45 37.17C186.493 36.6376 185.761 35.997 185.262 35.2317C184.763 34.4746 184.505 33.6011 184.505 32.6278C184.505 30.8891 185.22 29.4582 186.66 28.3268C188.099 27.1954 189.971 26.638 192.292 26.638C194.787 26.638 196.792 27.2037 198.315 28.3351C199.837 29.4665 200.594 30.9557 200.594 32.7942H194.679C194.679 31.2801 193.881 30.5231 192.283 30.5231C191.668 30.5231 191.144 30.6978 190.728 31.0389C190.312 31.3799 190.095 31.8125 190.095 32.3283C190.095 32.8441 190.353 33.2767 190.869 33.6095C191.385 33.9422 192.2 34.2001 193.332 34.4164C194.455 34.6244 195.445 34.874 196.301 35.1651C199.147 36.1468 200.569 37.9021 200.569 40.4311C200.569 42.1615 199.804 43.5674 198.265 44.6489C196.734 45.7304 194.746 46.2795 192.308 46.2795C190.686 46.2795 189.239 45.9883 187.966 45.406C186.693 44.8236 185.703 44.025 184.987 43.0267C184.272 42.0284 183.923 40.9719 183.923 39.8571H189.438C189.463 40.7306 189.754 41.3712 190.312 41.7705C190.869 42.1698 191.593 42.3778 192.466 42.3778C193.273 42.3778 193.872 42.2114 194.28 41.887C194.679 41.5625 194.887 41.1383 194.887 40.6058L194.879 40.6142Z" fill="white"/>
<path d="M212.482 46.2878C209.579 46.2878 207.224 45.4226 205.427 43.6922C203.63 41.9619 202.732 39.7074 202.732 36.9288V36.438C202.732 34.4996 203.09 32.7942 203.805 31.3134C204.521 29.8326 205.569 28.6845 206.95 27.8776C208.331 27.0706 209.961 26.663 211.85 26.663C214.512 26.663 216.608 27.4866 218.147 29.1421C219.686 30.7976 220.46 33.0937 220.46 36.047V38.343H208.738C208.946 39.4079 209.412 40.2398 210.119 40.8471C210.826 41.4544 211.75 41.7539 212.881 41.7539C214.745 41.7539 216.209 41.0967 217.257 39.7906L219.953 42.9768C219.22 43.9917 218.172 44.7987 216.833 45.3976C215.485 45.9966 214.038 46.2961 212.482 46.2961V46.2878ZM211.816 31.2052C210.086 31.2052 209.063 32.3533 208.738 34.6327H214.687V34.1752C214.711 33.2268 214.47 32.4947 213.971 31.9789C213.472 31.4631 212.748 31.1969 211.816 31.1969V31.2052Z" fill="white"/>
<path d="M102.878 72.756H92.9696V82.9053H86.8301V57.4239H103.876V62.1658H92.9696V68.0308H102.878V72.756Z" fill="white"/>
<path d="M117.053 80.8588C115.806 82.4561 114.117 83.2548 111.995 83.2548C109.874 83.2548 108.343 82.6475 107.278 81.4412C106.214 80.2349 105.681 78.4962 105.681 76.2334V63.9627H111.579V76.2667C111.579 77.8889 112.37 78.6959 113.942 78.6959C115.298 78.6959 116.255 78.2134 116.829 77.24V63.9544H122.76V82.8887H117.228L117.053 80.8422V80.8588Z" fill="white"/>
<path d="M135.896 77.5894C135.896 77.0903 135.63 76.6827 135.106 76.3832C134.582 76.0837 133.584 75.7676 132.111 75.4348C130.639 75.1103 129.424 74.6777 128.467 74.1453C127.511 73.6129 126.778 72.9723 126.279 72.207C125.78 71.4499 125.522 70.5764 125.522 69.6031C125.522 67.8644 126.238 66.4335 127.677 65.3021C129.116 64.1707 130.988 63.6133 133.309 63.6133C135.805 63.6133 137.81 64.179 139.332 65.3104C140.854 66.4418 141.611 67.9309 141.611 69.7695H135.697C135.697 68.2554 134.898 67.4983 133.301 67.4983C132.685 67.4983 132.161 67.673 131.745 68.0141C131.329 68.3552 131.113 68.7878 131.113 69.3036C131.113 69.8194 131.371 70.252 131.886 70.5847C132.402 70.9175 133.217 71.1754 134.349 71.3917C135.472 71.5997 136.462 71.8492 137.319 72.1404C140.164 73.1221 141.587 74.8774 141.587 77.4064C141.587 79.1368 140.821 80.5427 139.282 81.6242C137.751 82.7057 135.763 83.2548 133.326 83.2548C131.703 83.2548 130.256 82.9636 128.983 82.3813C127.71 81.7989 126.72 81.0003 126.005 80.002C125.289 79.0037 124.94 77.9472 124.94 76.8324H130.456C130.48 77.7059 130.772 78.3465 131.329 78.7458C131.886 79.1451 132.61 79.3531 133.484 79.3531C134.291 79.3531 134.89 79.1867 135.297 78.8623C135.697 78.5378 135.905 78.1135 135.905 77.5811L135.896 77.5894Z" fill="white"/>
<path d="M144.299 59.0877C144.299 58.2475 144.598 57.557 145.205 57.0246C145.813 56.4921 146.603 56.2176 147.568 56.2176C148.533 56.2176 149.323 56.4838 149.931 57.0246C150.538 57.5653 150.837 58.2475 150.837 59.0877C150.837 59.9279 150.538 60.6184 149.931 61.1509C149.323 61.6916 148.533 61.9578 147.568 61.9578C146.603 61.9578 145.813 61.6916 145.205 61.1509C144.598 60.6184 144.299 59.9279 144.299 59.0877ZM150.563 82.9053H144.648V63.971H150.563V82.9053Z" fill="white"/>
<path d="M153.449 73.2635C153.449 71.3751 153.816 69.6946 154.556 68.2138C155.288 66.7413 156.345 65.6016 157.725 64.8113C159.106 64.021 160.72 63.6216 162.576 63.6216C165.412 63.6216 167.642 64.5035 169.281 66.2588C170.911 68.0141 171.727 70.4017 171.727 73.4299V73.6379C171.727 76.5911 170.903 78.9288 169.264 80.6675C167.625 82.3979 165.404 83.2631 162.609 83.2631C159.814 83.2631 157.75 82.4561 156.12 80.8422C154.489 79.2283 153.608 77.0321 153.474 74.2701L153.458 73.2718L153.449 73.2635ZM159.348 73.6295C159.348 75.3765 159.622 76.666 160.171 77.4813C160.72 78.2966 161.527 78.7042 162.6 78.7042C164.697 78.7042 165.77 77.0903 165.82 73.8542V73.2635C165.82 69.8693 164.739 68.1722 162.567 68.1722C160.596 68.1722 159.531 69.6364 159.364 72.5647L159.348 73.6295Z" fill="white"/>
<path d="M179.738 63.971L179.929 66.1922C181.235 64.4785 183.041 63.6216 185.337 63.6216C187.308 63.6216 188.781 64.2123 189.754 65.3853C190.728 66.5666 191.235 68.3386 191.268 70.7095V82.9054H185.353V70.9508C185.353 69.9941 185.162 69.2953 184.779 68.846C184.397 68.3968 183.698 68.1722 182.683 68.1722C181.527 68.1722 180.67 68.6297 180.112 69.5365V82.9054H174.214V63.971H179.746H179.738Z" fill="white"/>
</svg>
